<svg id="e32AhtMQg9J1" xmlns="http://www.w3.org/2000/svg" xmlns:xlink="http://www.w3.org/1999/xlink" viewBox="0 0 400 400" shape-rendering="geometricPrecision" text-rendering="geometricPrecision"><g id="e32AhtMQg9J2"><path id="e32AhtMQg9J3" d="M268.493,88.86C268.173,89.182,267.092,90.528,266.09,91.852C262.579,96.492,256.488,103.212,249.307,110.37C245.322,114.343,242.514,117.297,243.068,116.936L244.074,116.279L244.083,157.677L244.091,199.074L245.657,197.396C246.518,196.473,250.894,191.807,255.382,187.026C262.463,179.482,266.659,174.909,268.71,172.498C269.575,171.481,269.359,87.99,268.493,88.86M268.995,188.036C268.718,188.758,260.029,201.123,256.614,205.656C253.843,209.333,250.087,213.897,246.331,218.148C244.801,219.88,243.21,221.713,242.794,222.222L242.037,223.148L243.056,222.25L244.074,221.352L244.074,234.121C244.074,243.458,243.956,247.007,243.636,247.327C243.395,247.568,243.27,247.838,243.359,247.927C243.743,248.311,253.167,234.666,256.766,228.515C262.099,219.401,266.453,209.235,268.107,202.037C268.341,201.019,268.636,199.769,268.762,199.259C268.888,198.75,269.053,196.667,269.129,194.63C269.205,192.593,269.307,190.134,269.356,189.166C269.451,187.28,269.376,187.044,268.995,188.036M248.977,289.599C247.09,290.385,245.325,291.212,245.054,291.437C244.783,291.661,244.452,291.736,244.318,291.602C244.184,291.468,244.074,292.982,244.074,294.968L244.074,298.577L245.185,298.333L246.296,298.089L246.296,302.125C246.296,304.344,246.132,307.066,245.931,308.173C245.73,309.28,245.505,310.519,245.431,310.926C245.357,311.333,245.201,311.917,245.084,312.222C244.704,313.214,243.955,315.736,243.983,315.926C243.999,316.028,243.817,316.351,243.58,316.645C243.245,317.059,243.252,317.117,243.611,316.901C244.642,316.282,244.204,322.712,243.148,323.704C242.639,324.182,242.222,324.705,242.222,324.866C242.222,325.48,245.655,321.569,246.896,319.541C250.299,313.981,252.695,303.891,253.22,292.909C253.487,287.327,253.816,287.584,248.977,289.599M244.074,340C244.074,342.117,243.942,342.966,243.611,342.974C243.069,342.987,243.98,343.583,244.826,343.769C245.125,343.835,245.454,343.972,245.556,344.074C245.657,344.176,246.741,344.757,247.963,345.364C250.622,346.687,255.902,350.171,257.963,351.963L259.444,353.252L258.704,354.073C257.431,355.485,250.353,360.037,246.481,361.934C244.444,362.932,243.069,363.66,243.426,363.552C244.008,363.377,244.074,363.678,244.074,366.493C244.074,368.218,244.225,369.63,244.409,369.63C246.994,369.63,260.915,363.33,267.5,359.18L269.259,358.071L269.259,353.349L269.259,348.627L267.13,347.25C262.242,344.09,246.551,337.037,244.409,337.037C244.225,337.037,244.074,338.37,244.074,340" transform="matrix(1 0 0 1 9.413468 -6.517017)" fill="rgb(5,110,185)" fill-rule="evenodd" stroke="none" stroke-width="1"/><path id="e32AhtMQg9J4" d="M152.874,154.111L152.778,195.323L153.889,196.614C154.5,197.324,156.179,199.251,157.619,200.897C159.06,202.542,161.435,205.359,162.898,207.156C164.463,209.077,165.629,210.222,165.729,209.934C165.822,209.665,166.162,208.278,166.483,206.852C170.433,189.312,180.101,171.371,194.194,155.428C196.002,153.383,196.36,152.775,196.05,152.28C195.364,151.185,183.028,139.661,172.593,130.368C166.991,125.379,161.074,120.07,159.444,118.571C157.815,117.071,155.691,115.182,154.725,114.372L152.969,112.899L152.874,154.111M206.609,149.907C188.131,167.511,175.679,188.62,171.159,210C168.161,224.178,168.156,247.242,171.145,266.852C175.228,293.627,184.954,319.605,197.457,337.13C198.874,339.116,200.168,340.741,200.331,340.741C200.495,340.741,200.73,338.199,200.853,335.093C201.223,325.727,202.903,317.33,206.336,307.69C207.37,304.784,208.464,301.616,208.766,300.648C209.068,299.681,209.449,298.889,209.612,298.889C209.775,298.889,209.936,297.181,209.969,295.093C210.039,290.709,209.974,290.727,207.459,295.792C203.919,302.92,200.391,314.605,198.75,324.63C198.65,325.241,198.634,323.824,198.714,321.481C199.039,312.05,202.577,297.11,206.323,289.352C207.838,286.215,208.053,286.021,209.284,286.68C209.991,287.058,210,286.155,210,217.05C210,178.543,209.915,147.037,209.811,147.037C209.707,147.037,208.266,148.329,206.609,149.907M206.778,155.668C206.615,155.933,205.375,157.725,204.023,159.649C193.558,174.539,186.246,194.725,183.906,215.185C183.005,223.06,183.2,235.832,184.286,240.162C184.553,241.223,181.474,242.235,177.161,242.504L174.127,242.694L173.823,241.254C173.334,238.939,173.472,224.989,174.02,221.296C177.649,196.863,187.483,175.781,203.001,159.167C206.476,155.446,207.49,154.507,206.778,155.668M152.88,230.133C152.824,236.986,152.903,242.593,153.056,242.593C153.208,242.593,153.292,242.74,153.241,242.92C153.135,243.295,153.546,243.884,159.649,252.116C164.595,258.788,164.961,259.171,164.65,257.351C164.137,254.344,163.649,245.763,163.502,237.161L163.343,227.841L158.324,222.902C155.563,220.185,153.232,217.898,153.143,217.818C153.055,217.739,152.936,223.281,152.88,230.133M152.784,297.857C152.637,301.709,152.616,304.962,152.739,305.085C152.862,305.208,152.963,303.698,152.963,301.728C152.963,297.575,152.779,297.703,156.737,299.112C168.759,303.392,176.082,311.866,178.182,323.928C178.852,327.775,179.449,326.063,179.423,320.37C179.369,308.416,170.423,298.166,154.019,291.26L153.053,290.853L152.784,297.857M152.974,314.189C152.967,317.748,152.833,319.593,152.593,319.444C150.714,318.284,156.443,324.954,158.931,326.825C163.868,330.537,174.815,335.007,174.815,333.311C174.815,333.096,174.672,333.007,174.498,333.115C174.019,333.411,167.729,329.572,164.274,326.874C159.154,322.876,156.794,319.562,154.236,312.778C154.082,312.37,153.989,311.894,154.028,311.72C154.068,311.546,153.929,311.197,153.72,310.945C153.511,310.694,153.437,310.39,153.556,310.271C153.674,310.153,153.595,309.751,153.379,309.38C153.088,308.881,152.983,310.139,152.974,314.189M163.889,335.774C161.153,336.158,158.12,336.774,155.556,337.465L152.778,338.214L152.778,341.808L152.778,345.402L156.477,343.95C171.628,338.002,184.589,341.398,198.704,355.011C202.254,358.435,206.836,362.091,208.766,363.04L209.939,363.616L210.062,361.472C210.13,360.293,210.06,359.406,209.907,359.501C209.755,359.596,209.63,359.525,209.63,359.344C209.63,359.163,208.891,358.484,207.988,357.835C207.085,357.187,204.191,354.617,201.556,352.125C189.082,340.322,175.01,334.214,163.889,335.774M208.889,344.354C206.434,346.893,206.045,348.048,208.298,346.111C208.89,345.602,209.496,345.185,209.645,345.185C209.794,345.185,209.989,344.685,210.079,344.074C210.169,343.463,210.229,342.974,210.214,342.988C210.198,343.002,209.602,343.617,208.889,344.354M189.63,361.714C178.314,367.43,165.529,367.654,153.426,362.346C153.074,362.192,152.963,362.96,152.963,365.535L152.963,368.927L154.352,369.51C165.952,374.378,182.689,371.305,191.261,362.733C194.462,359.532,194.232,359.389,189.63,361.714" transform="matrix(1 0 0 1 9.413468 -6.517017)" fill="rgb(4,157,166)" fill-rule="evenodd" stroke="none" stroke-width="1"/><path id="e32AhtMQg9J5" d="M288.78,29.63C288.66,30.139,288.458,32.389,288.329,34.63C287.339,51.946,281.345,69.36,271.075,84.758C269.669,86.866,268.521,88.699,268.524,88.832C268.527,88.965,268.691,88.824,268.889,88.519C269.122,88.158,269.256,102.717,269.27,130L269.291,172.037L271.736,169.444C275.566,165.382,283.078,156.566,287.087,151.428L290.741,146.746L290.741,143.928C290.741,142.297,290.585,141.111,290.37,141.111C290.167,141.111,290,141.253,290,141.427C290,141.823,288.862,143.103,285.264,146.756L282.44,149.622L281.38,148.607C280.798,148.049,279.839,146.81,279.25,145.852L278.179,144.112L279.726,142.889C282.885,140.394,285.402,138.043,288.035,135.13L290.741,132.137L290.741,118.846C290.741,110.233,290.61,105.556,290.37,105.556C290.167,105.556,290,105.69,290,105.855C290,106.019,289.601,106.644,289.114,107.243C288.627,107.843,287.223,109.583,285.994,111.111C281.367,116.865,281.31,116.884,283.822,111.852C285.832,107.825,288.845,99.838,289.409,97.037C289.512,96.528,289.693,95.611,289.813,95C289.932,94.389,290.113,93.611,290.215,93.27C290.318,92.93,290.477,92.263,290.568,91.789C290.813,90.524,290.792,38.901,290.546,37.593C290.084,35.135,289.99,34.563,289.787,32.963C289.372,29.703,289.029,28.567,288.78,29.63M270.073,185.984C269.428,187.003,269.332,187.799,269.325,192.188C269.318,197.162,269.742,197.467,270.145,192.778C270.232,191.759,270.388,190.676,270.492,190.37C270.754,189.598,271.168,184.815,270.973,184.815C270.885,184.815,270.48,185.341,270.073,185.984M269.187,353.426L269.074,358.393L271.111,357.101C274.697,354.826,276.296,353.676,276.296,353.37C276.296,353.114,274.535,351.862,270.298,349.109L269.3,348.46L269.187,353.426" transform="matrix(1 0 0 1 9.413468 -6.517017)" fill="rgb(17,88,172)" fill-rule="evenodd" stroke="none" stroke-width="1"/><path id="e32AhtMQg9J6" d="M243.117,116.347C242.939,116.635,243.024,116.69,243.369,116.511C243.938,116.216,242.942,117.031,241.481,118.055C240.972,118.412,239.639,119.549,238.519,120.581C237.398,121.614,231.966,126.476,226.448,131.386C217.63,139.231,207.526,148.7,209.352,147.406C209.968,146.969,210,150.354,210,217.005C210,286.155,209.991,287.058,209.284,286.68C208.89,286.469,208.348,286.3,208.08,286.304C207.812,286.309,208.303,286.635,209.172,287.03C211.185,287.943,211.372,288.486,210.278,290.243C209.046,292.222,208.724,292.912,209.44,292.037C210.009,291.342,210.039,291.518,209.93,294.908C209.867,296.895,209.855,298.52,209.904,298.519C209.953,298.519,210.849,296.81,211.895,294.722C217.064,284.406,221.915,277.039,235.806,258.415C239.723,253.164,242.727,248.968,242.482,249.091C242.237,249.214,242.329,249.075,242.685,248.783C243.042,248.491,243.333,248.052,243.333,247.808C243.333,247.563,243.492,247.462,243.686,247.582C244.09,247.831,244.243,221.774,243.84,221.371C243.702,221.233,241.656,222.993,239.293,225.282C233.324,231.064,228.399,234.944,223.19,237.968L221.38,239.019L221.654,236.829C222.432,230.6,225.237,223.979,230.276,216.481C233.492,211.695,239.909,203.53,242.593,200.808C243.102,200.291,243.261,200.023,242.945,200.212C242.63,200.401,242.755,200.216,243.223,199.801L244.074,199.046L244.074,157.693C244.074,118.928,243.982,114.947,243.117,116.347M243.554,292.279C243.711,292.533,243.656,292.607,243.42,292.461C243.201,292.326,242.133,292.686,241.048,293.262C226.15,301.163,219.856,309.204,219.827,320.37C219.812,326.064,220.409,327.763,221.077,323.928C222.952,313.164,230.952,302.939,239.665,300.174C240.119,300.03,241.089,299.65,241.82,299.33C242.55,299.01,243.315,298.739,243.519,298.726C244.046,298.694,244.223,291.852,243.696,291.852C243.472,291.852,243.409,292.044,243.554,292.279M243.266,317.593C243.034,318.102,242.686,318.519,242.494,318.519C242.301,318.519,242.239,318.769,242.356,319.074C242.473,319.38,242.432,319.63,242.265,319.63C242.098,319.63,241.182,320.622,240.229,321.835C237.384,325.456,225.909,333.824,224.761,333.115C224.587,333.007,224.444,333.096,224.444,333.311C224.444,334.951,235.28,330.59,240.093,327.014C241.264,326.143,242.222,325.235,242.222,324.995C242.222,324.755,242.597,324.242,243.056,323.854L243.889,323.148L243.148,324.074L242.407,325L243.194,324.337C243.883,323.756,243.988,323.241,244.046,320.17C244.114,316.516,243.971,316.045,243.266,317.593M227.212,335.545C219.274,336.675,210,341.356,210,344.234C210,344.821,209.732,345.22,209.231,345.379C208.809,345.513,208.528,345.688,208.607,345.768C208.686,345.847,209.907,345.426,211.32,344.833C217.763,342.126,226.006,340.536,232.03,340.837C235.531,341.011,242.548,342.409,242.973,343.016C243.636,343.963,244.099,342.501,243.998,339.783C243.901,337.182,243.813,336.865,243.213,336.967C242.842,337.03,242.342,336.925,242.102,336.732C240.808,335.694,231.427,334.946,227.212,335.545M209.929,361.397C210.051,363.439,209.99,363.805,209.594,363.426C209.329,363.171,208.939,362.963,208.729,362.963C207.151,362.963,217.222,368.093,221.296,369.364C227.912,371.429,235.078,371.901,240,370.596C241.324,370.245,242.741,369.912,243.148,369.856C244.301,369.699,244.494,363.492,243.347,363.492C242.932,363.492,242.593,363.587,242.593,363.702C242.593,363.818,242.167,363.948,241.647,363.991C241.127,364.034,240.419,364.215,240.073,364.393C236.816,366.074,227.048,366.303,221.852,364.819C218.426,363.841,210.741,360.186,209.983,359.174C209.872,359.026,209.848,360.026,209.929,361.397" transform="matrix(1 0 0 1 9.413468 -6.517017)" fill="rgb(4,128,180)" fill-rule="evenodd" stroke="none" stroke-width="1"/><path id="e32AhtMQg9J7" d="M290.766,65.574C290.781,79.785,290.924,89.145,291.119,88.704C293.079,84.284,293.437,61.885,291.797,46.296C290.95,38.245,290.741,42.149,290.766,65.574M314.66,47.106C313.125,63.393,304.894,84.163,293.169,101.335L290.706,104.941L290.732,118.441C290.75,127.917,290.632,132.121,290.338,132.545C288.892,134.629,293.948,128.709,296.507,125.323C303.925,115.505,309.289,105.181,312.935,93.704L313.699,91.296L313.473,93.148C312.145,104.012,303.754,122.222,293.276,136.981L290.556,140.813L290.678,143.784L290.8,146.755L292.666,144.211C317.038,110.985,326.237,74.737,316.897,48.733C315.187,43.974,314.97,43.816,314.66,47.106M287.387,135.833L286.111,137.222L287.5,135.946C288.793,134.758,289.059,134.444,288.776,134.444C288.714,134.444,288.089,135.069,287.387,135.833" transform="matrix(1 0 0 1 9.413468 -6.517017)" fill="rgb(35,66,157)" fill-rule="evenodd" stroke="none" stroke-width="1"/><path id="e32AhtMQg9J8" d="M83.736,47.407C75.089,69.481,80.515,100.828,97.99,129.744C99.737,132.635,101.32,135.056,101.509,135.123C101.698,135.191,101.852,135.483,101.852,135.772C101.852,136.06,102.019,136.296,102.222,136.296C102.976,136.296,102.649,131.233,101.798,129.733C93.262,114.692,89.86,107.007,87.569,97.593C86.228,92.084,86.486,91.469,88.112,96.296C90.7,103.979,94.419,111.602,98.743,118.089C99.74,119.584,100.805,121.207,101.111,121.696C102.538,123.98,102.593,123.518,102.593,109.087L102.593,95.234L98.728,87.71C91.777,74.173,87.907,62.982,86.136,51.296C85.796,49.056,85.395,46.556,85.244,45.741L84.97,44.259L83.736,47.407" transform="matrix(1 0 0 1 9.413468 -6.517017)" fill="rgb(37,172,218)" fill-rule="evenodd" stroke="none" stroke-width="1"/><path id="e32AhtMQg9J9" d="M111.011,29.444C110.872,29.852,110.344,32.769,109.837,35.926C104.514,69.069,107.295,96.224,117.921,114.858L119.27,117.222L117.757,115.556C115.366,112.92,109.104,104.499,105.8,99.475C101.815,93.415,101.734,93.298,102.215,94.328C102.728,95.426,102.735,123.095,102.222,122.778C100.695,121.834,106.73,129.548,111.296,134.376C115.157,138.458,121.139,143.704,121.932,143.704C122.092,143.704,122.222,128.015,122.222,108.839C122.222,74.391,122.119,71.111,121.031,71.111C120.847,71.111,120.8,70.944,120.926,70.741C121.052,70.537,120.978,70.37,120.763,70.37C120.547,70.37,120.37,70.143,120.37,69.866C120.37,69.588,119.878,68.166,119.275,66.706C115.227,56.888,112.761,46.223,111.718,34.024C111.465,31.067,111.151,29.033,111.011,29.444M102.52,133.938L102.386,136.852L104.404,139.815C108.742,146.187,119.686,160,120.396,160C120.558,160,120.792,160.318,120.915,160.707C121.038,161.095,121.383,161.507,121.681,161.621C122.146,161.799,122.222,160.604,122.222,153.087L122.222,144.345L121.481,145.286C121.074,145.804,120.741,146.353,120.741,146.505C120.741,146.658,120.063,147.447,119.234,148.259L117.727,149.737L115.867,147.924C113.406,145.524,108.896,139.92,105.751,135.354C104.354,133.326,103.086,131.522,102.933,131.346C102.78,131.169,102.594,132.336,102.52,133.938" transform="matrix(1 0 0 1 9.413468 -6.517017)" fill="rgb(24,172,199)" fill-rule="evenodd" stroke="none" stroke-width="1"/><path id="e32AhtMQg9J10" d="M122.135,108.029C122.222,139.435,122.169,143.481,121.654,144.545C121.138,145.611,121.138,145.663,121.649,145.022C122.171,144.368,122.222,145.095,122.222,153.099C122.222,160.034,122.124,161.838,121.759,161.625C121.124,161.253,122.018,162.303,127.593,168.473C133.899,175.452,133.944,175.5,133.557,174.832C133.375,174.517,133.791,174.851,134.483,175.575C135.175,176.298,135.531,176.617,135.275,176.283C134.906,175.803,134.811,166.985,134.818,134.272C134.827,95.131,134.792,92.839,134.173,92.333C133.813,92.038,133.769,91.928,134.074,92.087C134.38,92.247,133.793,91.301,132.77,89.985C130.246,86.738,126.027,80.169,123.838,76.076L122.037,72.708L122.135,108.029M129.263,186.389C129.269,188.658,130.577,196.723,131.5,200.185C131.935,201.815,132.426,203.695,132.59,204.362C132.755,205.03,133.093,205.822,133.342,206.122C133.591,206.421,133.657,206.667,133.49,206.667C133.322,206.667,133.372,206.854,133.601,207.082C133.829,207.311,133.928,207.727,133.82,208.008C133.713,208.289,133.827,208.519,134.074,208.519C134.321,208.519,134.43,208.763,134.315,209.062C134.2,209.361,134.259,209.7,134.447,209.816C134.648,209.941,134.83,206.757,134.893,202.014C134.952,197.608,134.872,193.924,134.716,193.827C134.56,193.731,134.517,193.515,134.621,193.347C134.725,193.178,134.551,192.941,134.234,192.819C133.916,192.697,133.76,192.43,133.887,192.225C134.014,192.02,133.961,191.852,133.769,191.852C133.577,191.852,133.318,191.56,133.194,191.204C133.07,190.847,132.475,189.806,131.873,188.889C131.271,187.972,130.501,186.681,130.162,186.019C129.361,184.456,129.258,184.498,129.263,186.389M134.326,346.95C134.159,347.208,133.868,347.324,133.678,347.206C133.488,347.089,133.333,347.167,133.333,347.378C133.333,347.59,132.917,347.868,132.407,347.996C131.898,348.124,131.481,348.35,131.481,348.499C131.481,348.648,131.023,348.975,130.463,349.225C129.06,349.852,123.7,353.374,123.718,353.658C123.75,354.189,132.321,359.63,133.126,359.63C133.423,359.63,133.831,359.921,134.031,360.278C134.345,360.838,134.424,360.849,134.614,360.358C134.951,359.483,134.671,346.418,134.326,346.95" transform="matrix(1 0 0 1 9.413468 -6.517017)" fill="rgb(20,172,187)" fill-rule="evenodd" stroke="none" stroke-width="1"/><path id="e32AhtMQg9J11" d="M134.818,134.251C134.811,166.981,134.906,175.803,135.275,176.283C135.531,176.617,135.182,176.298,134.498,175.575C133.815,174.851,133.481,174.611,133.757,175.04C134.705,176.515,152.391,195.125,152.677,194.948C152.834,194.851,152.963,176.335,152.963,153.802L152.963,112.834L153.981,113.732C154.542,114.225,151.912,111.463,148.137,107.593C144.363,103.722,139.959,98.972,138.351,97.037C136.743,95.102,135.292,93.363,135.127,93.173C134.962,92.983,134.823,111.468,134.818,134.251M134.648,193.684C134.86,193.896,134.927,197.239,134.815,202.11C134.638,209.82,134.828,212.222,135.614,212.222C135.809,212.222,135.872,212.38,135.753,212.573C135.004,213.785,148.627,238.525,150.413,239.198C150.593,239.265,150.741,239.562,150.741,239.857C150.741,240.152,150.984,240.487,151.282,240.601C151.58,240.716,151.925,241.127,152.048,241.516C152.762,243.765,152.963,241.22,152.963,229.943C152.963,218.16,152.99,217.684,153.631,218.183C153.999,218.47,153.833,218.275,153.261,217.751C152.69,217.227,152.222,216.689,152.222,216.556C152.222,216.423,150.798,214.612,149.058,212.53C145.414,208.173,140.846,202.142,137.254,196.944C135.881,194.958,134.654,193.333,134.527,193.333C134.4,193.333,134.455,193.491,134.648,193.684M146.049,293.241C146.25,297.524,146.854,302.525,147.56,305.741C148.574,310.363,149.233,312.608,150.39,315.37C150.645,315.981,150.903,316.728,150.963,317.03C151.022,317.332,151.248,317.638,151.464,317.71C151.68,317.782,151.793,317.952,151.716,318.087C151.639,318.223,151.888,318.654,152.27,319.046C152.97,319.767,153.341,312.76,152.905,307.037C152.835,306.12,152.831,302.079,152.897,298.056C153.002,291.602,152.948,290.741,152.434,290.741C152.114,290.741,151.852,290.546,151.852,290.309C151.852,290.071,151.745,289.983,151.615,290.114C151.484,290.244,150.943,290.12,150.411,289.838C148.773,288.969,146.763,288.148,146.275,288.148C145.914,288.148,145.864,289.277,146.049,293.241M152.183,338.681C152.094,338.771,151.596,338.921,151.078,339.015C149.529,339.296,143.807,341.766,139.182,344.15L134.845,346.386L134.737,353.595L134.63,360.804L137.593,362.418C141.283,364.429,152.19,369.251,153.069,369.26C153.113,369.261,153.095,367.591,153.031,365.55C152.962,363.377,152.77,361.927,152.568,362.052C152.378,362.17,152.222,362.062,152.222,361.812C152.222,361.562,152.124,361.456,152.004,361.577C151.761,361.819,143.893,356.585,141.852,354.823L140.556,353.704L141.852,352.596C143.578,351.121,149.18,347.338,150.478,346.771C151.046,346.523,151.768,346.063,152.082,345.749C152.396,345.435,152.764,345.248,152.9,345.333C153.037,345.418,153.095,343.919,153.03,342.003C152.925,338.904,152.729,338.135,152.183,338.681" transform="matrix(1 0 0 1 9.413468 -6.517017)" fill="rgb(12,172,180)" fill-rule="evenodd" stroke="none" stroke-width="1"/></g><script><![CDATA[!function(t,n){"object"==typeof exports&&"undefined"!=typeof module?module.exports=n():"function"==typeof define&&define.amd?define(n):(t="undefined"!=typeof globalThis?globalThis:t||self).__SVGATOR_PLAYER__=n()}(this,(function(){"use strict";function t(n){return(t="function"==typeof Symbol&&"symbol"==typeof Symbol.iterator?function(t){return typeof t}:function(t){return t&&"function"==typeof Symbol&&t.constructor===Symbol&&t!==Symbol.prototype?"symbol":typeof t})(n)}function n(t,n){if(!(t instanceof n))throw new TypeError("Cannot call a class as a function")}function r(t,n){for(var r=0;r<n.length;r++){var e=n[r];e.enumerable=e.enumerable||!1,e.configurable=!0,"value"in e&&(e.writable=!0),Object.defineProperty(t,e.key,e)}}function e(t,n,e){return n&&r(t.prototype,n),e&&r(t,e),t}function i(t){return(i=Object.setPrototypeOf?Object.getPrototypeOf:function(t){return t.__proto__||Object.getPrototypeOf(t)})(t)}function o(t,n){return(o=Object.setPrototypeOf||function(t,n){return t.__proto__=n,t})(t,n)}function u(t,n){return!n||"object"!=typeof n&&"function"!=typeof n?function(t){if(void 0===t)throw new ReferenceError("this hasn't been initialised - super() hasn't been called");return t}(t):n}function a(t){var n=function(){if("undefined"==typeof Reflect||!Reflect.construct)return!1;if(Reflect.construct.sham)return!1;if("function"==typeof Proxy)return!0;try{return Boolean.prototype.valueOf.call(Reflect.construct(Boolean,[],(function(){}))),!0}catch(t){return!1}}();return function(){var r,e=i(t);if(n){var o=i(this).constructor;r=Reflect.construct(e,arguments,o)}else r=e.apply(this,arguments);return u(this,r)}}function l(t,n,r){return(l="undefined"!=typeof Reflect&&Reflect.get?Reflect.get:function(t,n,r){var e=function(t,n){for(;!Object.prototype.hasOwnProperty.call(t,n)&&null!==(t=i(t)););return t}(t,n);if(e){var o=Object.getOwnPropertyDescriptor(e,n);return o.get?o.get.call(r):o.value}})(t,n,r||t)}var f=s(Math.pow(10,-6));function s(t){var n=arguments.length>1&&void 0!==arguments[1]?arguments[1]:6;if(Number.isInteger(t))return t;var r=Math.pow(10,n);return Math.round((+t+Number.EPSILON)*r)/r}function c(t,n){var r=arguments.length>2&&void 0!==arguments[2]?arguments[2]:f;return Math.abs(t-n)<r}var h=Math.PI/180;function v(t){return t}function y(t,n,r){var e=1-r;return 3*r*e*(t*e+n*r)+r*r*r}function d(){var t=arguments.length>0&&void 0!==arguments[0]?arguments[0]:0,n=arguments.length>1&&void 0!==arguments[1]?arguments[1]:0,r=arguments.length>2&&void 0!==arguments[2]?arguments[2]:1,e=arguments.length>3&&void 0!==arguments[3]?arguments[3]:1;return t<0||t>1||r<0||r>1?null:c(t,n)&&c(r,e)?v:function(i){if(i<=0)return t>0?i*n/t:0===n&&r>0?i*e/r:0;if(i>=1)return r<1?1+(i-1)*(e-1)/(r-1):1===r&&t<1?1+(i-1)*(n-1)/(t-1):1;for(var o,u=0,a=1;u<a;){var l=y(t,r,o=(u+a)/2);if(c(i,l))break;l<i?u=o:a=o}return y(n,e,o)}}function g(){return 1}function p(t){return 1===t?1:0}function m(){var t=arguments.length>0&&void 0!==arguments[0]?arguments[0]:1,n=arguments.length>1&&void 0!==arguments[1]?arguments[1]:0;if(1===t){if(0===n)return p;if(1===n)return g}var r=1/t;return function(t){return t>=1?1:(t+=n*r)-t%r}}function b(t,n,r){return t>=.5?r:n}function w(t,n,r){return 0===t||n===r?n:t*(r-n)+n}function x(t,n,r){var e=w(t,n,r);return e<=0?0:e}function k(t,n,r){return 0===t?n:1===t?r:{x:w(t,n.x,r.x),y:w(t,n.y,r.y)}}function A(t,n,r){var e=function(t,n,r){return Math.round(w(t,n,r))}(t,n,r);return e<=0?0:e>=255?255:e}function S(t,n,r){return 0===t?n:1===t?r:{r:A(t,n.r,r.r),g:A(t,n.g,r.g),b:A(t,n.b,r.b),a:w(t,null==n.a?1:n.a,null==r.a?1:r.a)}}function _(t,n,r){if(0===t)return n;if(1===t)return r;var e=n.length;if(e!==r.length)return b(t,n,r);for(var i=[],o=0;o<e;o++)i.push(S(t,n[o],r[o]));return i}function O(t,n){for(var r=[],e=0;e<t;e++)r.push(n);return r}function M(t,n){if(--n<=0)return t;var r=(t=Object.assign([],t)).length;do{for(var e=0;e<r;e++)t.push(t[e])}while(--n>0);return t}var j,P=function(){function t(r){n(this,t),this.list=r,this.length=r.length}return e(t,[{key:"setAttribute",value:function(t,n){for(var r=this.list,e=0;e<this.length;e++)r[e].setAttribute(t,n)}},{key:"removeAttribute",value:function(t){for(var n=this.list,r=0;r<this.length;r++)n[r].removeAttribute(t)}},{key:"style",value:function(t,n){for(var r=this.list,e=0;e<this.length;e++)r[e].style[t]=n}}]),t}(),I=/-./g,E=function(t,n){return n.toUpperCase()};function F(t){return"function"==typeof t?t:b}function N(t){return t?"function"==typeof t?t:Array.isArray(t)?function(t){var n=arguments.length>1&&void 0!==arguments[1]?arguments[1]:v;if(!Array.isArray(t))return n;switch(t.length){case 1:return m(t[0])||n;case 2:return m(t[0],t[1])||n;case 4:return d(t[0],t[1],t[2],t[3])||n}return n}(t,null):function(t,n){var r=arguments.length>2&&void 0!==arguments[2]?arguments[2]:v;switch(t){case"linear":return v;case"steps":return m(n.steps||1,n.jump||0)||r;case"bezier":case"cubic-bezier":return d(n.x1||0,n.y1||0,n.x2||0,n.y2||0)||r}return r}(t.type,t.value,null):null}function B(t,n,r){var e=arguments.length>3&&void 0!==arguments[3]&&arguments[3],i=n.length-1;if(t<=n[0].t)return e?[0,0,n[0].v]:n[0].v;if(t>=n[i].t)return e?[i,1,n[i].v]:n[i].v;var o,u=n[0],a=null;for(o=1;o<=i;o++){if(!(t>n[o].t)){a=n[o];break}u=n[o]}return null==a?e?[i,1,n[i].v]:n[i].v:u.t===a.t?e?[o,1,a.v]:a.v:(t=(t-u.t)/(a.t-u.t),u.e&&(t=u.e(t)),e?[o,t,r(t,u.v,a.v)]:r(t,u.v,a.v))}function R(t,n){var r=arguments.length>2&&void 0!==arguments[2]?arguments[2]:null;return t&&t.length?"function"!=typeof n?null:("function"!=typeof r&&(r=null),function(e){var i=B(e,t,n);return null!=i&&r&&(i=r(i)),i}):null}function q(t,n){return t.t-n.t}function T(n,r,e,i,o){var u,a="@"===e[0],l="#"===e[0],f=j[e],s=b;switch(a?(u=e.substr(1),e=u.replace(I,E)):l&&(e=e.substr(1)),t(f)){case"function":if(s=f(i,o,B,N,e,a,r,n),l)return s;break;case"string":s=R(i,F(f));break;case"object":if((s=R(i,F(f.i),f.f))&&"function"==typeof f.u)return f.u(r,s,e,a,n)}return s?function(t,n,r){var e=arguments.length>3&&void 0!==arguments[3]&&arguments[3];if(e)return t instanceof P?function(e){return t.style(n,r(e))}:function(e){return t.style[n]=r(e)};if(Array.isArray(n)){var i=n.length;return function(e){var o=r(e);if(null==o)for(var u=0;u<i;u++)t[u].removeAttribute(n);else for(var a=0;a<i;a++)t[a].setAttribute(n,o)}}return function(e){var i=r(e);null==i?t.removeAttribute(n):t.setAttribute(n,i)}}(r,e,s,a):null}function L(n,r,e,i){if(!i||"object"!==t(i))return null;var o=null,u=null;return Array.isArray(i)?u=function(t){if(!t||!t.length)return null;for(var n=0;n<t.length;n++)t[n].e&&(t[n].e=N(t[n].e));return t.sort(q)}(i):(u=i.keys,o=i.data||null),u?T(n,r,e,u,o):null}function C(t,n,r){if(!r)return null;var e=[];for(var i in r)if(r.hasOwnProperty(i)){var o=L(t,n,i,r[i]);o&&e.push(o)}return e.length?e:null}function z(t,n){if(!n.duration||n.duration<0)return null;var r=function(t,n){if(!n)return null;var r=[];if(Array.isArray(n))for(var e=n.length,i=0;i<e;i++){var o=n[i];if(2===o.length){var u=null;if("string"==typeof o[0])u=t.getElementById(o[0]);else if(Array.isArray(o[0])){u=[];for(var a=0;a<o[0].length;a++)if("string"==typeof o[0][a]){var l=t.getElementById(o[0][a]);l&&u.push(l)}u=u.length?1===u.length?u[0]:new P(u):null}if(u){var f=C(t,u,o[1]);f&&(r=r.concat(f))}}}else for(var s in n)if(n.hasOwnProperty(s)){var c=t.getElementById(s);if(c){var h=C(t,c,n[s]);h&&(r=r.concat(h))}}return r.length?r:null}(t,n.elements);return r?function(t,n){var r=arguments.length>2&&void 0!==arguments[2]?arguments[2]:1/0,e=arguments.length>3&&void 0!==arguments[3]?arguments[3]:1,i=arguments.length>4&&void 0!==arguments[4]&&arguments[4],o=arguments.length>5&&void 0!==arguments[5]?arguments[5]:1,u=t.length,a=e>0?n:0;i&&r%2==0&&(a=n-a);var l=null;return function(f,s){var c=f%n,h=1+(f-c)/n;s*=e,i&&h%2==0&&(s=-s);var v=!1;if(h>r)c=a,v=!0,-1===o&&(c=e>0?0:n);else if(s<0&&(c=n-c),c===l)return!1;l=c;for(var y=0;y<u;y++)t[y](c);return v}}(r,n.duration,n.iterations||1/0,n.direction||1,!!n.alternate,n.fill||1):null}Number.isInteger||(Number.isInteger=function(t){return"number"==typeof t&&isFinite(t)&&Math.floor(t)===t}),Number.EPSILON||(Number.EPSILON=2220446049250313e-31);var D=function(){function t(r,e){var i=arguments.length>2&&void 0!==arguments[2]?arguments[2]:{};n(this,t),this._id=0,this._running=!1,this._rollingBack=!1,this._animations=r,this.duration=e.duration,this.alternate=e.alternate,this.fill=e.fill,this.iterations=e.iterations,this.direction=i.direction||1,this.speed=i.speed||1,this.fps=i.fps||100,this.offset=i.offset||0,this.rollbackStartOffset=0}return e(t,[{key:"_rollback",value:function(){var t=this,n=1/0,r=null;this.rollbackStartOffset=this.offset,this._rollingBack||(this._rollingBack=!0,this._running=!0);this._id=window.requestAnimationFrame((function e(i){if(t._rollingBack){null==r&&(r=i);var o=i-r,u=t.rollbackStartOffset-o,a=Math.round(u*t.speed);if(a>t.duration&&n!=1/0){var l=!!t.alternate&&a/t.duration%2>1,f=a%t.duration;a=(f+=l?t.duration:0)||t.duration}var s=t.fps?1e3/t.fps:0,c=Math.max(0,a);if(c<n-s){t.offset=c,n=c;for(var h=t._animations,v=h.length,y=0;y<v;y++)h[y](c,t.direction)}var d=!1;if(t.iterations>0&&-1===t.fill){var g=t.iterations*t.duration,p=g==a;a=p?0:a,t.offset=p?0:t.offset,d=a>g}a>0&&t.offset>=a&&!d?t._id=window.requestAnimationFrame(e):t.stop()}}))}},{key:"_start",value:function(){var t=this,n=arguments.length>0&&void 0!==arguments[0]?arguments[0]:0,r=-1/0,e=null,i={},o=function o(u){t._running=!0,null==e&&(e=u);var a=Math.round((u-e+n)*t.speed),l=t.fps?1e3/t.fps:0;if(a>r+l&&!t._rollingBack){t.offset=a,r=a;for(var f=t._animations,s=f.length,c=0,h=0;h<s;h++)i[h]?c++:(i[h]=f[h](a,t.direction),i[h]&&c++);if(c===s)return void t._stop()}t._id=window.requestAnimationFrame(o)};this._id=window.requestAnimationFrame(o)}},{key:"_stop",value:function(){this._id&&window.cancelAnimationFrame(this._id),this._running=!1,this._rollingBack=!1}},{key:"play",value:function(){!this._rollingBack&&this._running||(this._rollingBack=!1,this.rollbackStartOffset>this.duration&&(this.offset=this.rollbackStartOffset-(this.rollbackStartOffset-this.offset)%this.duration,this.rollbackStartOffset=0),this._start(this.offset))}},{key:"stop",value:function(){this._stop(),this.offset=0,this.rollbackStartOffset=0;var t=this.direction,n=this._animations;window.requestAnimationFrame((function(){for(var r=0;r<n.length;r++)n[r](0,t)}))}},{key:"reachedToEnd",value:function(){return this.iterations>0&&this.offset>=this.iterations*this.duration}},{key:"restart",value:function(){this._stop(),this.offset=0,this._start()}},{key:"pause",value:function(){this._stop()}},{key:"reverse",value:function(){this.direction=-this.direction}}],[{key:"build",value:function(n,r){return(n=function(t,n){if(j=n,!t||!t.root||!Array.isArray(t.animations))return null;for(var r=document.getElementsByTagName("svg"),e=!1,i=0;i<r.length;i++)if(r[i].id===t.root&&!r[i].svgatorAnimation){(e=r[i]).svgatorAnimation=!0;break}if(!e)return null;var o=t.animations.map((function(t){return z(e,t)})).filter((function(t){return!!t}));return o.length?{element:e,animations:o,animationSettings:t.animationSettings,options:t.options||void 0}:null}(n,r))?{el:n.element,options:n.options||{},player:new t(n.animations,n.animationSettings,n.options)}:null}}]),t}();function Q(t){return s(t)+""}function U(t){var n=arguments.length>1&&void 0!==arguments[1]?arguments[1]:" ";return t&&t.length?t.map(Q).join(n):""}function V(t){return t?null==t.a||t.a>=1?"rgb("+t.r+","+t.g+","+t.b+")":"rgba("+t.r+","+t.g+","+t.b+","+t.a+")":"transparent"}!function(){for(var t=0,n=["ms","moz","webkit","o"],r=0;r<n.length&&!window.requestAnimationFrame;++r)window.requestAnimationFrame=window[n[r]+"RequestAnimationFrame"],window.cancelAnimationFrame=window[n[r]+"CancelAnimationFrame"]||window[n[r]+"CancelRequestAnimationFrame"];window.requestAnimationFrame||(window.requestAnimationFrame=function(n){var r=Date.now(),e=Math.max(0,16-(r-t)),i=window.setTimeout((function(){n(r+e)}),e);return t=r+e,i},window.cancelAnimationFrame=window.clearTimeout)}();var G={f:null,i:function(t,n,r){return 0===t?n:1===t?r:{x:x(t,n.x,r.x),y:x(t,n.y,r.y)}},u:function(t,n){return function(r){var e=n(r);t.setAttribute("rx",Q(e.x)),t.setAttribute("ry",Q(e.y))}}},H={f:null,i:function(t,n,r){return 0===t?n:1===t?r:{width:x(t,n.width,r.width),height:x(t,n.height,r.height)}},u:function(t,n){return function(r){var e=n(r);t.setAttribute("width",Q(e.width)),t.setAttribute("height",Q(e.height))}}},Y=Math.sin,Z=Math.cos,J=Math.acos,K=Math.asin,W=Math.tan,X=Math.atan2,$=Math.PI/180,tt=180/Math.PI,nt=Math.sqrt,rt=function(){function t(){var r=arguments.length>0&&void 0!==arguments[0]?arguments[0]:1,e=arguments.length>1&&void 0!==arguments[1]?arguments[1]:0,i=arguments.length>2&&void 0!==arguments[2]?arguments[2]:0,o=arguments.length>3&&void 0!==arguments[3]?arguments[3]:1,u=arguments.length>4&&void 0!==arguments[4]?arguments[4]:0,a=arguments.length>5&&void 0!==arguments[5]?arguments[5]:0;n(this,t),this.m=[r,e,i,o,u,a],this.i=null,this.w=null,this.s=null}return e(t,[{key:"determinant",get:function(){var t=this.m;return t[0]*t[3]-t[1]*t[2]}},{key:"isIdentity",get:function(){if(null===this.i){var t=this.m;this.i=1===t[0]&&0===t[1]&&0===t[2]&&1===t[3]&&0===t[4]&&0===t[5]}return this.i}},{key:"point",value:function(t,n){var r=this.m;return{x:r[0]*t+r[2]*n+r[4],y:r[1]*t+r[3]*n+r[5]}}},{key:"translateSelf",value:function(){var t=arguments.length>0&&void 0!==arguments[0]?arguments[0]:0,n=arguments.length>1&&void 0!==arguments[1]?arguments[1]:0;if(!t&&!n)return this;var r=this.m;return r[4]+=r[0]*t+r[2]*n,r[5]+=r[1]*t+r[3]*n,this.w=this.s=this.i=null,this}},{key:"rotateSelf",value:function(){var t=arguments.length>0&&void 0!==arguments[0]?arguments[0]:0;if(t%=360){var n=Y(t*=$),r=Z(t),e=this.m,i=e[0],o=e[1];e[0]=i*r+e[2]*n,e[1]=o*r+e[3]*n,e[2]=e[2]*r-i*n,e[3]=e[3]*r-o*n,this.w=this.s=this.i=null}return this}},{key:"scaleSelf",value:function(){var t=arguments.length>0&&void 0!==arguments[0]?arguments[0]:1,n=arguments.length>1&&void 0!==arguments[1]?arguments[1]:1;if(1!==t||1!==n){var r=this.m;r[0]*=t,r[1]*=t,r[2]*=n,r[3]*=n,this.w=this.s=this.i=null}return this}},{key:"skewSelf",value:function(t,n){if(n%=360,(t%=360)||n){var r=this.m,e=r[0],i=r[1],o=r[2],u=r[3];t&&(t=W(t*$),r[2]+=e*t,r[3]+=i*t),n&&(n=W(n*$),r[0]+=o*n,r[1]+=u*n),this.w=this.s=this.i=null}return this}},{key:"resetSelf",value:function(){var t=arguments.length>0&&void 0!==arguments[0]?arguments[0]:1,n=arguments.length>1&&void 0!==arguments[1]?arguments[1]:0,r=arguments.length>2&&void 0!==arguments[2]?arguments[2]:0,e=arguments.length>3&&void 0!==arguments[3]?arguments[3]:1,i=arguments.length>4&&void 0!==arguments[4]?arguments[4]:0,o=arguments.length>5&&void 0!==arguments[5]?arguments[5]:0,u=this.m;return u[0]=t,u[1]=n,u[2]=r,u[3]=e,u[4]=i,u[5]=o,this.w=this.s=this.i=null,this}},{key:"recomposeSelf",value:function(){var t=arguments.length>0&&void 0!==arguments[0]?arguments[0]:null,n=arguments.length>1&&void 0!==arguments[1]?arguments[1]:null,r=arguments.length>2&&void 0!==arguments[2]?arguments[2]:null,e=arguments.length>3&&void 0!==arguments[3]?arguments[3]:null,i=arguments.length>4&&void 0!==arguments[4]?arguments[4]:null;return this.isIdentity||this.resetSelf(),t&&(t.x||t.y)&&this.translateSelf(t.x,t.y),n&&this.rotateSelf(n),r&&(r.x&&this.skewSelf(r.x,0),r.y&&this.skewSelf(0,r.y)),!e||1===e.x&&1===e.y||this.scaleSelf(e.x,e.y),i&&(i.x||i.y)&&this.translateSelf(i.x,i.y),this}},{key:"decompose",value:function(){var t=arguments.length>0&&void 0!==arguments[0]?arguments[0]:0,n=arguments.length>1&&void 0!==arguments[1]?arguments[1]:0,r=this.m,e=r[0]*r[0]+r[1]*r[1],i=[[r[0],r[1]],[r[2],r[3]]],o=nt(e);if(0===o)return{origin:{x:s(r[4]),y:s(r[5])},translate:{x:s(t),y:s(n)},scale:{x:0,y:0},skew:{x:0,y:0},rotate:0};i[0][0]/=o,i[0][1]/=o;var u=r[0]*r[3]-r[1]*r[2]<0;u&&(o=-o);var a=i[0][0]*i[1][0]+i[0][1]*i[1][1];i[1][0]-=i[0][0]*a,i[1][1]-=i[0][1]*a;var l=nt(i[1][0]*i[1][0]+i[1][1]*i[1][1]);if(0===l)return{origin:{x:s(r[4]),y:s(r[5])},translate:{x:s(t),y:s(n)},scale:{x:s(o),y:0},skew:{x:0,y:0},rotate:0};i[1][0]/=l,i[1][1]/=l,a/=l;var f=0;return i[1][1]<0?(f=J(i[1][1])*tt,i[0][1]<0&&(f=360-f)):f=K(i[0][1])*tt,u&&(f=-f),a=X(a,nt(i[0][0]*i[0][0]+i[0][1]*i[0][1]))*tt,u&&(a=-a),{origin:{x:s(r[4]),y:s(r[5])},translate:{x:s(t),y:s(n)},scale:{x:s(o),y:s(l)},skew:{x:s(a),y:0},rotate:s(f)}}},{key:"toString",value:function(){return null===this.s&&(this.s="matrix("+this.m.map((function(t){return s(t)})).join(" ")+")"),this.s}}]),t}();Object.freeze({M:2,L:2,Z:0,H:1,V:1,C:6,Q:4,T:2,S:4,A:7});var et={},it=null;function ot(n){var r=function(){if(it)return it;if("object"!==("undefined"==typeof document?"undefined":t(document))||!document.createElementNS)return{};var n=document.createElementNS("http://www.w3.org/2000/svg","svg");return n&&n.style?(n.style.position="absolute",n.style.opacity="0.01",n.style.zIndex="-9999",n.style.left="-9999px",n.style.width="1px",n.style.height="1px",it={svg:n}):{}}().svg;if(!r)return function(t){return null};var e=document.createElementNS(r.namespaceURI,"path");e.setAttributeNS(null,"d",n),e.setAttributeNS(null,"fill","none"),e.setAttributeNS(null,"stroke","none"),r.appendChild(e);var i=e.getTotalLength();return function(t){var n=e.getPointAtLength(i*t);return{x:n.x,y:n.y}}}function ut(t){return et[t]?et[t]:et[t]=ot(t)}function at(t,n,r,e){if(!t||!e)return!1;var i=["M",t.x,t.y];if(n&&r&&(i.push("C"),i.push(n.x),i.push(n.y),i.push(r.x),i.push(r.y)),n?!r:r){var o=n||r;i.push("Q"),i.push(o.x),i.push(o.y)}return n||r||i.push("L"),i.push(e.x),i.push(e.y),i.join(" ")}function lt(t,n,r,e){var i=arguments.length>4&&void 0!==arguments[4]?arguments[4]:1,o=at(t,n,r,e),u=ut(o);try{return u(i)}catch(t){return null}}function ft(t,n,r,e){var i=1-e;return i*i*t+2*i*e*n+e*e*r}function st(t,n,r,e){return 2*(1-e)*(n-t)+2*e*(r-n)}function ct(t,n,r,e){var i=arguments.length>4&&void 0!==arguments[4]&&arguments[4],o=lt(t,n,null,r,e);return o||(o={x:ft(t.x,n.x,r.x,e),y:ft(t.y,n.y,r.y,e)}),i&&(o.a=ht(t,n,r,e)),o}function ht(t,n,r,e){return Math.atan2(st(t.y,n.y,r.y,e),st(t.x,n.x,r.x,e))}function vt(t,n,r,e,i){var o=i*i;return i*o*(e-t+3*(n-r))+3*o*(t+r-2*n)+3*i*(n-t)+t}function yt(t,n,r,e,i){var o=1-i;return 3*(o*o*(n-t)+2*o*i*(r-n)+i*i*(e-r))}function dt(t,n,r,e,i){var o=arguments.length>5&&void 0!==arguments[5]&&arguments[5],u=lt(t,n,r,e,i);return u||(u={x:vt(t.x,n.x,r.x,e.x,i),y:vt(t.y,n.y,r.y,e.y,i)}),o&&(u.a=gt(t,n,r,e,i)),u}function gt(t,n,r,e,i){return Math.atan2(yt(t.y,n.y,r.y,e.y,i),yt(t.x,n.x,r.x,e.x,i))}function pt(t,n,r){return t+(n-t)*r}function mt(t,n,r){var e=arguments.length>3&&void 0!==arguments[3]&&arguments[3],i={x:pt(t.x,n.x,r),y:pt(t.y,n.y,r)};return e&&(i.a=bt(t,n)),i}function bt(t,n){return Math.atan2(n.y-t.y,n.x-t.x)}function wt(t,n,r){var e=arguments.length>3&&void 0!==arguments[3]&&arguments[3];if(kt(n)){if(At(r))return ct(n,r.start,r,t,e)}else if(kt(r)){if(n.end)return ct(n,n.end,r,t,e)}else{if(n.end)return r.start?dt(n,n.end,r.start,r,t,e):ct(n,n.end,r,t,e);if(r.start)return ct(n,r.start,r,t,e)}return mt(n,r,t,e)}function xt(t,n,r){var e=wt(t,n,r,!0);return e.a=function(t){var n=arguments.length>1&&void 0!==arguments[1]&&arguments[1];return n?t+Math.PI:t}(e.a)/h,e}function kt(t){return!t.type||"corner"===t.type}function At(t){return null!=t.start&&!kt(t)}var St=new rt;var _t={f:Q,i:w},Ot={f:Q,i:function(t,n,r){var e=w(t,n,r);return e<=0?0:e>=1?1:e}};function Mt(t,n,r,e,i,o,u,a){return n=function(t,n,r){for(var e,i,o,u=t.length-1,a={},l=0;l<=u;l++)(e=t[l]).e&&(e.e=n(e.e)),e.v&&"g"===(i=e.v).t&&i.r&&(o=r.getElementById(i.r))&&(a[i.r]=o.querySelectorAll("stop"));return a}(t,e,a),function(e){var i,o=r(e,t,jt);return o?"c"===o.t?V(o.v):"g"===o.t?(n[o.r]&&function(t,n){for(var r=0,e=t.length;r<e;r++)t[r].setAttribute("stop-color",V(n[r]))}(n[o.r],o.v),(i=o.r)?"url(#"+i+")":"none"):"none":"none"}}function jt(t,n,r){if(0===t)return n;if(1===t)return r;if(n&&r){var e=n.t;if(e===r.t)switch(n.t){case"c":return{t:e,v:S(t,n.v,r.v)};case"g":if(n.r===r.r)return{t:e,v:_(t,n.v,r.v),r:n.r}}}return b(t,n,r)}var Pt={fill:Mt,"fill-opacity":Ot,stroke:Mt,"stroke-opacity":Ot,"stroke-width":_t,"stroke-dashoffset":{f:Q,i:w},"stroke-dasharray":{f:function(t){var n=arguments.length>1&&void 0!==arguments[1]?arguments[1]:" ";return t&&t.length>0&&(t=t.map((function(t){return s(t,4)}))),U(t,n)},i:function(t,n,r){var e,i,o,u=n.length,a=r.length;if(u!==a)if(0===u)n=O(u=a,0);else if(0===a)a=u,r=O(u,0);else{var l=(o=(e=u)*(i=a)/function(t,n){for(var r;n;)r=n,n=t%n,t=r;return t||1}(e,i))<0?-o:o;n=M(n,Math.floor(l/u)),r=M(r,Math.floor(l/a)),u=a=l}for(var f=[],c=0;c<u;c++)f.push(s(x(t,n[c],r[c])));return f}},opacity:Ot,transform:function(n,r,e,i){if(!(n=function(n,r){if(!n||"object"!==t(n))return null;var e=!1;for(var i in n)n.hasOwnProperty(i)&&(n[i]&&n[i].length?(n[i].forEach((function(t){t.e&&(t.e=r(t.e))})),e=!0):delete n[i]);return e?n:null}(n,i)))return null;var o=function(t,i,o){var u=arguments.length>3&&void 0!==arguments[3]?arguments[3]:null;return n[t]?e(i,n[t],o):r&&r[t]?r[t]:u};return r&&r.a&&n.o?function(t){var r=e(t,n.o,xt);return St.recomposeSelf(r,o("r",t,w,0)+r.a,o("k",t,k),o("s",t,k),o("t",t,k)).toString()}:function(t){return St.recomposeSelf(o("o",t,wt,null),o("r",t,w,0),o("k",t,k),o("s",t,k),o("t",t,k)).toString()}},r:_t,"#size":H,"#radius":G,_:function(t,n){if(Array.isArray(t))for(var r=0;r<t.length;r++)this[t[r]]=n;else this[t]=n}};return function(t){!function(t,n){if("function"!=typeof n&&null!==n)throw new TypeError("Super expression must either be null or a function");t.prototype=Object.create(n&&n.prototype,{constructor:{value:t,writable:!0,configurable:!0}}),n&&o(t,n)}(u,t);var r=a(u);function u(){return n(this,u),r.apply(this,arguments)}return e(u,null,[{key:"build",value:function(t){var n=l(i(u),"build",this).call(this,t,Pt);if(!n)return null;n.el,n.options;var r=n.player;return function(t,n,r){t.play()}(r),r}}]),u}(D)}));
__SVGATOR_PLAYER__.build({"root":"e32AhtMQg9J1","animations":[{"duration":3000,"direction":1,"iterations":0,"fill":1,"alternate":false,"speed":1,"elements":{"e32AhtMQg9J3":{"transform":{"data":{"t":{"x":-255.715126,"y":-229.241608}},"keys":{"o":[{"t":0,"v":{"x":265.128594,"y":222.724591,"type":"corner"}},{"t":400,"v":{"x":265.128594,"y":205.34588,"type":"corner"}},{"t":900,"v":{"x":266.57682,"y":228.607819,"type":"corner"}}]}}},"e32AhtMQg9J4":{"transform":{"data":{"t":{"x":-181.218765,"y":-242.361465}},"keys":{"o":[{"t":0,"v":{"x":190.632233,"y":235.844448,"type":"corner"}},{"t":400,"v":{"x":190.632233,"y":218.465737,"type":"corner"}},{"t":900,"v":{"x":192.080459,"y":241.727676,"type":"corner"}}]}}},"e32AhtMQg9J5":{"transform":{"data":{"t":{"x":-279.632721,"y":-193.818279}},"keys":{"o":[{"t":0,"v":{"x":289.046189,"y":187.301262,"type":"corner"}},{"t":400,"v":{"x":289.046189,"y":169.922551,"type":"corner"}},{"t":900,"v":{"x":290.494415,"y":193.18449,"type":"corner"}}]}}},"e32AhtMQg9J6":{"transform":{"data":{"t":{"x":-226.061501,"y":-243.720955}},"keys":{"o":[{"t":0,"v":{"x":235.474969,"y":237.203938,"type":"corner"}},{"t":400,"v":{"x":235.474969,"y":219.825227,"type":"corner"}},{"t":900,"v":{"x":236.923195,"y":243.087166,"type":"corner"}}]}}},"e32AhtMQg9J7":{"transform":{"data":{"t":{"x":-303.296432,"y":-94.617596}},"keys":{"o":[{"t":0,"v":{"x":312.7099,"y":88.100579,"type":"corner"}},{"t":400,"v":{"x":312.7099,"y":70.721868,"type":"corner"}},{"t":900,"v":{"x":314.158126,"y":93.983807,"type":"corner"}}]}}},"e32AhtMQg9J8":{"transform":{"data":{"t":{"x":-91.167229,"y":-90.2775}},"keys":{"o":[{"t":0,"v":{"x":100.580697,"y":83.760483,"type":"corner"}},{"t":400,"v":{"x":100.580697,"y":66.381772,"type":"corner"}},{"t":900,"v":{"x":102.028923,"y":89.643711,"type":"corner"}}]}}},"e32AhtMQg9J9":{"transform":{"data":{"t":{"x":-112.101242,"y":-95.514193}},"keys":{"o":[{"t":0,"v":{"x":121.51471,"y":88.997176,"type":"corner"}},{"t":400,"v":{"x":121.51471,"y":71.618465,"type":"corner"}},{"t":900,"v":{"x":122.962936,"y":94.880404,"type":"corner"}}]}}},"e32AhtMQg9J10":{"transform":{"data":{"t":{"x":-128.312202,"y":-216.710426}},"keys":{"o":[{"t":0,"v":{"x":137.72567,"y":210.193409,"type":"corner"}},{"t":400,"v":{"x":137.72567,"y":192.814698,"type":"corner"}},{"t":900,"v":{"x":139.173896,"y":216.076637,"type":"corner"}}]}}},"e32AhtMQg9J11":{"transform":{"data":{"t":{"x":-143.858253,"y":-231.215782}},"keys":{"o":[{"t":0,"v":{"x":153.271721,"y":224.698765,"type":"corner"}},{"t":400,"v":{"x":153.271721,"y":207.320054,"type":"corner"}},{"t":900,"v":{"x":154.719947,"y":230.581993,"type":"corner"}}]}}}}}],"options":{"start":"load","hover":null,"click":null,"scroll":null,"font":"embed","exportedIds":"unique","svgFormat":"animated","title":"image2vector"},"animationSettings":{"duration":3000,"direction":1,"iterations":0,"fill":1,"alternate":false,"speed":1}})]]></script></svg>